<svg width="13" height="11" viewBox="0 0 13 11" fill="none" xmlns="http://www.w3.org/2000/svg">
<path fill-rule="evenodd" clip-rule="evenodd" d="M6.49999 0C3.77052 0 1.93203 1.63509 0.864994 3.02135L0.845748 3.04635C0.604433 3.35976 0.382175 3.64841 0.231394 3.98972C0.0699217 4.35523 0 4.75358 0 5.29069C0 5.8278 0.0699217 6.22614 0.231394 6.59165C0.382175 6.93298 0.604433 7.22164 0.845754 7.53503L0.864994 7.56C1.93203 8.94628 3.77052 10.5814 6.49999 10.5814C9.22944 10.5814 11.0679 8.94628 12.135 7.56L12.1542 7.53503C12.3956 7.22164 12.6178 6.93298 12.7686 6.59165C12.9301 6.22614 13 5.8278 13 5.29069C13 4.75358 12.9301 4.35523 12.7686 3.98972C12.6178 3.6484 12.3956 3.35975 12.1542 3.04634L12.135 3.02135C11.0679 1.63509 9.22944 0 6.49999 0ZM1.58371 3.57457C2.56894 2.2946 4.1723 0.906975 6.49999 0.906975C8.82765 0.906975 10.4311 2.2946 11.4163 3.57457C11.6815 3.91909 11.8368 4.12498 11.9389 4.3562C12.0345 4.57236 12.093 4.83654 12.093 5.29069C12.093 5.74484 12.0345 6.00901 11.9389 6.22518C11.8368 6.45639 11.6815 6.66228 11.4163 7.00681C10.4311 8.28679 8.82765 9.6744 6.49999 9.6744C4.1723 9.6744 2.56894 8.28679 1.58371 7.00681C1.31852 6.66228 1.16319 6.45639 1.06102 6.22518C0.96553 6.00901 0.906975 5.74484 0.906975 5.29069C0.906975 4.83654 0.96553 4.57236 1.06102 4.3562C1.16319 4.12498 1.31852 3.91909 1.58371 3.57457Z" fill="#6F7985"/>
</svg>
