<svg xmlns="http://www.w3.org/2000/svg" xmlns:xlink="http://www.w3.org/1999/xlink" width="500" zoomAndPan="magnify" viewBox="0 0 375 374.999991" height="500" preserveAspectRatio="xMidYMid meet" version="1.2"><g id="c5b8c6c985"><path style=" stroke:none;fill-rule:nonzero;fill:#7bc1b7;fill-opacity:1;" d="M 240.5 288.058594 C 235.097656 282.660156 230.097656 276.863281 225.570312 270.75 L 225.570312 306.480469 C 225.570312 307.75 225.570312 309.019531 225.492188 310.210938 C 225.414062 311.402344 225.253906 312.671875 225.015625 313.941406 C 224.777344 315.210938 224.539062 316.402344 224.140625 317.59375 C 223.824219 318.785156 223.429688 319.976562 222.953125 321.167969 C 222.476562 322.359375 222 323.46875 221.363281 324.582031 C 220.808594 325.695312 220.171875 326.804688 219.457031 327.835938 C 218.742188 328.871094 218.027344 329.902344 217.234375 330.855469 C 216.441406 331.808594 215.648438 332.761719 214.695312 333.632812 C 213.820312 334.507812 212.867188 335.378906 211.914062 336.175781 C 210.960938 336.96875 209.929688 337.761719 208.898438 338.476562 C 207.867188 339.191406 206.753906 339.828125 205.644531 340.460938 C 204.53125 341.097656 203.417969 341.574219 202.226562 342.128906 C 201.039062 342.605469 199.925781 343.082031 198.65625 343.398438 C 197.464844 343.796875 196.273438 344.113281 195.003906 344.351562 C 193.734375 344.589844 192.542969 344.75 191.269531 344.90625 C 190 345.066406 188.730469 345.066406 187.539062 345.066406 C 186.269531 345.066406 185 344.988281 183.808594 344.90625 C 182.539062 344.75 181.347656 344.589844 180.078125 344.351562 C 178.804688 344.113281 177.613281 343.796875 176.425781 343.398438 C 175.234375 343.003906 174.042969 342.605469 172.851562 342.128906 C 171.660156 341.652344 170.546875 341.097656 169.4375 340.460938 C 168.324219 339.828125 167.292969 339.191406 166.179688 338.476562 C 165.148438 337.761719 164.117188 337.046875 163.164062 336.175781 C 162.210938 335.378906 161.257812 334.507812 160.386719 333.632812 C 159.511719 332.761719 158.636719 331.808594 157.84375 330.855469 C 157.050781 329.902344 156.335938 328.871094 155.621094 327.835938 C 154.90625 326.804688 154.273438 325.695312 153.714844 324.582031 C 153.160156 323.46875 152.605469 322.359375 152.128906 321.167969 C 151.652344 319.976562 151.253906 318.785156 150.9375 317.59375 C 150.621094 316.402344 150.300781 315.132812 150.0625 313.941406 C 149.824219 312.671875 149.667969 311.480469 149.585938 310.210938 C 149.507812 308.941406 149.429688 307.667969 149.507812 306.480469 L 149.507812 224.300781 L 67.566406 224.300781 C 65.582031 224.300781 63.597656 224.140625 61.613281 223.824219 C 59.628906 223.507812 57.722656 223.03125 55.816406 222.394531 C 53.910156 221.761719 52.085938 221.046875 50.339844 220.09375 C 48.59375 219.21875 46.84375 218.109375 45.257812 216.996094 C 43.667969 215.804688 42.160156 214.535156 40.730469 213.105469 C 39.300781 211.675781 38.03125 210.167969 36.839844 208.582031 C 35.648438 206.992188 34.617188 205.246094 33.746094 203.5 C 32.871094 201.753906 32.078125 199.847656 31.441406 198.019531 C 30.808594 196.113281 30.410156 194.210938 30.09375 192.222656 C 29.773438 190.238281 29.617188 188.253906 29.617188 186.269531 C 29.617188 184.285156 29.773438 182.300781 30.09375 180.3125 C 30.410156 178.328125 30.886719 176.425781 31.519531 174.519531 C 32.15625 172.613281 32.949219 170.785156 33.824219 169.039062 C 34.695312 167.292969 35.808594 165.546875 36.921875 163.957031 C 38.113281 162.371094 39.382812 160.863281 40.8125 159.433594 C 42.238281 158.003906 43.75 156.734375 45.335938 155.621094 L 48.195312 153.558594 C 44.464844 150.460938 41.050781 147.125 37.875 143.472656 C 34.460938 139.664062 31.363281 135.613281 28.425781 131.40625 L 26.996094 132.4375 C 25.566406 133.46875 24.214844 134.582031 22.945312 135.773438 C 21.597656 136.960938 20.324219 138.152344 19.136719 139.425781 C 17.945312 140.695312 16.753906 141.964844 15.640625 143.316406 C 14.53125 144.664062 13.417969 146.015625 12.464844 147.523438 C 11.433594 148.953125 10.480469 150.460938 9.605469 151.96875 C 8.734375 153.476562 7.859375 154.984375 7.066406 156.574219 C 6.273438 158.164062 5.558594 159.75 4.921875 161.339844 C 4.289062 162.925781 3.652344 164.59375 3.175781 166.261719 C 2.621094 167.929688 2.222656 169.59375 1.824219 171.34375 C 1.429688 173.089844 1.113281 174.757812 0.875 176.503906 C 0.636719 178.25 0.398438 179.996094 0.316406 181.742188 C 0.238281 183.570312 0.238281 185.316406 0.238281 187.0625 C 0.238281 188.808594 0.316406 190.558594 0.476562 192.304688 C 0.636719 194.050781 0.875 195.796875 1.113281 197.542969 C 1.429688 199.289062 1.746094 200.957031 2.144531 202.703125 C 2.539062 204.371094 3.097656 206.117188 3.574219 207.785156 C 4.128906 209.453125 4.765625 211.121094 5.398438 212.710938 C 6.113281 214.296875 6.828125 215.886719 7.621094 217.472656 C 8.417969 219.0625 9.289062 220.570312 10.242188 222.078125 C 11.195312 223.585938 12.148438 225.015625 13.179688 226.445312 C 14.210938 227.875 15.324219 229.222656 16.433594 230.574219 C 17.546875 231.921875 18.816406 233.195312 20.007812 234.386719 C 21.277344 235.65625 22.550781 236.765625 23.898438 237.957031 C 25.25 239.070312 26.597656 240.179688 28.027344 241.214844 C 29.457031 242.246094 30.886719 243.199219 32.394531 244.152344 C 33.902344 245.105469 35.410156 245.898438 37 246.691406 C 38.585938 247.484375 40.175781 248.199219 41.765625 248.914062 C 43.351562 249.550781 45.019531 250.183594 46.6875 250.742188 C 48.355469 251.296875 50.019531 251.773438 51.769531 252.171875 C 53.433594 252.566406 55.183594 252.886719 56.929688 253.203125 C 58.675781 253.441406 60.421875 253.679688 62.167969 253.835938 C 63.914062 253.996094 65.664062 254.074219 67.410156 254.074219 L 120.050781 254.074219 L 120.050781 306.636719 C 120.050781 307.75 120.050781 308.859375 120.050781 309.972656 C 120.050781 311.085938 120.128906 312.195312 120.210938 313.308594 C 120.289062 314.417969 120.449219 315.53125 120.605469 316.640625 C 120.765625 317.753906 120.925781 318.863281 121.164062 319.976562 C 121.402344 321.089844 121.558594 322.199219 121.878906 323.230469 C 122.113281 324.34375 122.433594 325.375 122.75 326.488281 C 123.066406 327.519531 123.386719 328.632812 123.78125 329.664062 C 124.179688 330.695312 124.496094 331.726562 124.972656 332.761719 C 125.371094 333.792969 125.847656 334.824219 126.324219 335.855469 C 126.800781 336.886719 127.277344 337.839844 127.753906 338.875 C 128.308594 339.828125 128.785156 340.859375 129.339844 341.8125 C 129.894531 342.765625 130.453125 343.71875 131.085938 344.667969 C 131.722656 345.621094 132.359375 346.496094 132.992188 347.449219 C 133.628906 348.320312 134.34375 349.195312 135.058594 350.070312 C 135.773438 350.941406 136.484375 351.816406 137.199219 352.609375 C 137.914062 353.402344 138.710938 354.277344 139.503906 355.070312 C 140.296875 355.863281 141.089844 356.660156 141.886719 357.375 C 142.679688 358.089844 143.554688 358.882812 144.425781 359.597656 C 145.300781 360.3125 146.171875 361.027344 147.046875 361.660156 C 147.917969 362.296875 148.871094 363.011719 149.746094 363.566406 C 150.699219 364.203125 151.570312 364.757812 152.523438 365.394531 C 153.476562 365.949219 154.429688 366.503906 155.460938 367.058594 C 156.414062 367.617188 157.449219 368.09375 158.480469 368.570312 C 159.511719 369.046875 160.464844 369.519531 161.496094 369.917969 C 162.527344 370.316406 163.5625 370.792969 164.59375 371.109375 C 165.625 371.507812 166.738281 371.824219 167.769531 372.140625 C 168.800781 372.460938 169.914062 372.777344 171.023438 373.015625 C 172.136719 373.253906 173.167969 373.570312 174.28125 373.730469 C 175.390625 373.886719 176.503906 374.125 177.535156 374.285156 C 178.648438 374.445312 179.757812 374.601562 180.871094 374.683594 C 181.980469 374.761719 183.09375 374.839844 184.203125 374.921875 C 185.316406 375 186.429688 375 187.539062 375 C 188.652344 375 189.761719 375 190.875 374.921875 C 191.984375 374.839844 193.097656 374.761719 194.210938 374.683594 C 195.320312 374.601562 196.433594 374.445312 197.542969 374.285156 C 198.65625 374.125 199.765625 373.96875 200.800781 373.730469 C 201.832031 373.492188 202.941406 373.253906 204.054688 373.015625 C 205.167969 372.777344 206.199219 372.460938 207.308594 372.140625 C 208.34375 371.824219 209.453125 371.425781 210.484375 371.109375 C 211.519531 370.710938 212.550781 370.316406 213.582031 369.917969 C 214.613281 369.519531 215.648438 369.046875 216.597656 368.570312 C 217.632812 368.09375 218.585938 367.617188 219.617188 367.058594 C 220.570312 366.503906 221.601562 365.949219 222.554688 365.394531 C 223.507812 364.835938 224.460938 364.203125 225.332031 363.566406 C 226.285156 362.929688 227.160156 362.296875 228.03125 361.660156 C 228.90625 361.027344 229.78125 360.3125 230.652344 359.597656 C 231.527344 358.882812 232.320312 358.167969 233.195312 357.375 C 233.988281 356.660156 234.78125 355.863281 235.574219 355.070312 C 236.371094 354.277344 237.085938 353.484375 237.878906 352.609375 C 238.59375 351.816406 239.308594 350.941406 240.023438 350.070312 C 240.738281 349.195312 241.371094 348.320312 242.085938 347.449219 C 242.722656 346.574219 243.355469 345.621094 243.992188 344.667969 C 244.628906 343.71875 245.183594 342.765625 245.738281 341.8125 C 246.292969 340.859375 246.851562 339.90625 247.328125 338.875 C 247.804688 337.921875 248.359375 336.886719 248.757812 335.855469 C 249.234375 334.824219 249.628906 333.792969 250.105469 332.761719 C 250.503906 331.726562 250.898438 330.695312 251.296875 329.664062 C 251.695312 328.632812 252.011719 327.519531 252.328125 326.488281 C 252.648438 325.457031 252.964844 324.34375 253.203125 323.230469 C 253.441406 322.121094 253.679688 321.089844 253.917969 319.976562 C 254.15625 318.863281 254.3125 317.753906 254.472656 316.640625 C 254.632812 315.53125 254.710938 314.417969 254.871094 313.308594 C 254.949219 312.195312 255.027344 311.085938 255.027344 309.972656 C 255.027344 308.859375 255.109375 307.75 255.027344 306.636719 L 255.027344 300.601562 C 249.867188 296.632812 244.945312 292.585938 240.5 288.058594 Z M 240.5 288.058594 "/><path style=" stroke:none;fill-rule:nonzero;fill:#0b8fac;fill-opacity:1;" d="M 126.5625 131.960938 C 124.339844 137.199219 121.242188 141.886719 117.273438 145.933594 L 118.226562 148.15625 L 118.226562 148.394531 L 149.667969 148.394531 L 149.667969 66.378906 C 149.667969 65.1875 149.746094 63.914062 149.90625 62.726562 C 150.0625 61.535156 150.222656 60.261719 150.539062 59.074219 C 150.777344 57.882812 151.097656 56.691406 151.492188 55.5 C 151.890625 54.308594 152.285156 53.195312 152.761719 52.085938 C 153.238281 50.972656 153.796875 49.863281 154.351562 48.75 C 154.90625 47.640625 155.621094 46.605469 156.257812 45.652344 C 156.972656 44.621094 157.6875 43.667969 158.480469 42.714844 C 159.273438 41.765625 160.066406 40.890625 160.941406 40.015625 C 161.816406 39.144531 162.765625 38.347656 163.71875 37.554688 C 164.671875 36.761719 165.625 36.046875 166.65625 35.410156 C 167.691406 34.777344 168.722656 34.140625 169.832031 33.585938 C 170.945312 33.03125 172.058594 32.472656 173.167969 31.996094 C 174.28125 31.519531 175.472656 31.125 176.660156 30.808594 C 177.851562 30.488281 179.042969 30.171875 180.234375 29.933594 C 181.425781 29.695312 182.617188 29.535156 183.886719 29.378906 C 185.078125 29.21875 186.347656 29.21875 187.539062 29.21875 C 188.730469 29.21875 190 29.296875 191.191406 29.378906 C 192.382812 29.457031 193.652344 29.695312 194.84375 29.933594 C 196.035156 30.171875 197.226562 30.488281 198.417969 30.808594 C 199.609375 31.125 200.71875 31.601562 201.910156 31.996094 C 203.023438 32.472656 204.132812 32.949219 205.246094 33.585938 C 206.355469 34.140625 207.390625 34.777344 208.421875 35.410156 C 209.453125 36.046875 210.40625 36.839844 211.359375 37.554688 C 212.3125 38.347656 213.265625 39.144531 214.136719 40.015625 C 215.011719 40.890625 215.886719 41.765625 216.601562 42.714844 C 217.394531 43.667969 218.109375 44.621094 218.824219 45.652344 C 219.539062 46.6875 220.171875 47.71875 220.726562 48.75 C 221.285156 49.78125 221.839844 50.894531 222.316406 52.085938 C 222.792969 53.195312 223.269531 54.386719 223.585938 55.5 C 223.984375 56.691406 224.300781 57.882812 224.539062 59.074219 C 224.777344 60.261719 225.015625 61.453125 225.175781 62.726562 C 225.332031 63.914062 225.414062 65.1875 225.414062 66.378906 L 225.414062 148.476562 L 239.546875 148.476562 C 241.847656 147.363281 244.308594 146.492188 246.769531 145.933594 C 249.3125 145.378906 251.851562 145.0625 254.394531 145.0625 C 256.933594 145.0625 259.476562 145.378906 262.015625 145.933594 C 264.554688 146.492188 266.9375 147.363281 269.242188 148.476562 L 307.433594 148.476562 C 308.703125 148.476562 309.894531 148.554688 311.164062 148.632812 C 312.433594 148.792969 313.625 148.953125 314.816406 149.191406 C 316.007812 149.429688 317.199219 149.746094 318.390625 150.0625 C 319.578125 150.460938 320.769531 150.859375 321.882812 151.332031 C 322.992188 151.808594 324.183594 152.367188 325.21875 152.921875 C 326.328125 153.476562 327.359375 154.113281 328.394531 154.828125 C 329.425781 155.542969 330.457031 156.257812 331.410156 157.050781 C 332.363281 157.84375 333.316406 158.636719 334.1875 159.511719 C 335.0625 160.386719 335.9375 161.339844 336.652344 162.289062 C 337.445312 163.242188 338.160156 164.277344 338.875 165.308594 C 339.589844 166.339844 340.222656 167.371094 340.777344 168.484375 C 341.335938 169.59375 341.890625 170.707031 342.367188 171.820312 C 342.84375 172.929688 343.242188 174.121094 343.636719 175.3125 C 344.035156 176.503906 344.273438 177.695312 344.511719 178.886719 C 344.75 180.078125 344.90625 181.347656 345.066406 182.539062 C 345.226562 183.808594 345.226562 185 345.226562 186.269531 C 345.226562 188.570312 344.988281 190.875 344.589844 193.097656 C 355.308594 195.242188 364.28125 199.449219 369.523438 208.820312 C 369.839844 209.296875 369.996094 209.851562 370.316406 210.40625 L 371.347656 207.390625 C 371.746094 206.117188 372.140625 204.847656 372.460938 203.578125 C 372.777344 202.308594 373.09375 201.039062 373.332031 199.6875 C 373.570312 198.417969 373.808594 197.066406 374.046875 195.796875 C 374.285156 194.527344 374.363281 193.175781 374.523438 191.828125 C 374.601562 190.476562 374.683594 189.207031 374.761719 187.855469 C 374.761719 186.507812 374.761719 185.238281 374.761719 183.886719 C 374.683594 182.539062 374.601562 181.265625 374.523438 179.917969 C 374.445312 178.566406 374.207031 177.296875 374.046875 175.949219 C 373.808594 174.597656 373.570312 173.328125 373.332031 172.058594 C 373.015625 170.785156 372.699219 169.4375 372.378906 168.167969 C 372.0625 166.894531 371.664062 165.625 371.1875 164.355469 C 370.792969 163.085938 370.316406 161.894531 369.757812 160.625 C 369.285156 159.433594 368.726562 158.164062 368.171875 156.972656 C 367.617188 155.78125 366.980469 154.589844 366.34375 153.476562 C 365.710938 152.367188 364.996094 151.175781 364.28125 150.0625 C 363.566406 148.953125 362.851562 147.839844 362.058594 146.808594 C 361.265625 145.695312 360.46875 144.664062 359.597656 143.632812 C 358.722656 142.601562 357.851562 141.566406 356.976562 140.613281 C 356.101562 139.664062 355.152344 138.710938 354.199219 137.757812 C 353.246094 136.804688 352.292969 135.929688 351.261719 135.058594 C 350.226562 134.183594 349.195312 133.390625 348.164062 132.597656 C 347.132812 131.800781 346.019531 131.007812 344.90625 130.292969 C 343.796875 129.578125 342.683594 128.863281 341.574219 128.148438 C 340.460938 127.515625 339.269531 126.800781 338.078125 126.242188 C 336.890625 125.609375 335.699219 125.054688 334.507812 124.496094 C 333.316406 123.941406 332.046875 123.464844 330.773438 122.988281 C 329.503906 122.511719 328.3125 122.113281 327.042969 121.71875 C 325.773438 121.320312 324.503906 121.003906 323.230469 120.6875 C 321.960938 120.367188 320.613281 120.128906 319.339844 119.890625 C 318.070312 119.652344 316.722656 119.496094 315.371094 119.335938 C 314.023438 119.175781 312.75 119.097656 311.402344 119.019531 C 310.050781 118.9375 308.78125 118.859375 307.433594 118.9375 L 254.871094 118.9375 L 254.871094 66.378906 C 254.871094 64.152344 254.710938 62.011719 254.472656 59.867188 C 254.234375 57.722656 253.835938 55.578125 253.441406 53.433594 C 252.964844 51.292969 252.410156 49.226562 251.773438 47.082031 C 251.136719 45.019531 250.34375 42.953125 249.472656 40.96875 C 248.597656 38.984375 247.644531 37 246.613281 35.09375 C 245.582031 33.1875 244.390625 31.28125 243.199219 29.535156 C 241.929688 27.710938 240.65625 25.964844 239.226562 24.296875 C 237.800781 22.628906 236.371094 21.039062 234.78125 19.453125 C 233.195312 17.945312 231.605469 16.433594 229.859375 15.085938 C 228.191406 13.734375 226.367188 12.386719 224.539062 11.195312 C 222.714844 10.003906 220.808594 8.894531 218.902344 7.859375 C 216.996094 6.828125 215.011719 5.953125 212.949219 5.082031 C 210.960938 4.289062 208.898438 3.492188 206.753906 2.9375 C 204.691406 2.300781 202.546875 1.746094 200.402344 1.351562 C 198.257812 0.953125 196.113281 0.636719 193.890625 0.398438 C 191.984375 0.078125 189.84375 0 187.617188 0 C 185.394531 0 183.253906 0.078125 181.109375 0.316406 C 178.964844 0.554688 176.742188 0.875 174.597656 1.269531 C 172.453125 1.667969 170.308594 2.222656 168.246094 2.859375 C 166.179688 3.492188 164.117188 4.207031 162.050781 5.003906 C 160.066406 5.796875 158.082031 6.75 156.097656 7.78125 C 154.191406 8.8125 152.285156 9.925781 150.460938 11.117188 C 148.632812 12.308594 146.886719 13.578125 145.140625 15.007812 C 143.472656 16.355469 141.804688 17.863281 140.21875 19.375 C 138.628906 20.882812 137.199219 22.550781 135.773438 24.214844 C 134.34375 25.882812 133.070312 27.628906 131.800781 29.457031 C 130.53125 31.28125 129.417969 33.109375 128.386719 35.015625 C 127.355469 36.921875 126.402344 38.90625 125.53125 40.890625 C 124.65625 42.875 123.941406 44.941406 123.226562 47.003906 C 122.589844 49.070312 122.035156 51.210938 121.558594 53.355469 C 121.082031 55.5 120.765625 57.644531 120.527344 59.789062 C 120.289062 61.929688 120.128906 64.152344 120.128906 66.296875 L 120.128906 67.566406 C 128.148438 86.941406 132.675781 117.191406 126.5625 131.960938 Z M 126.5625 131.960938 "/><path style=" stroke:none;fill-rule:nonzero;fill:#7bc1b7;fill-opacity:1;" d="M 21.597656 97.421875 C 22.867188 107.109375 32.792969 124.496094 44.542969 137.757812 C 49.386719 143.234375 56.609375 150.222656 63.441406 152.761719 C 66.535156 153.796875 69.632812 154.511719 72.886719 154.828125 C 76.144531 155.144531 79.320312 155.066406 82.574219 154.589844 L 85.988281 162.371094 C 86.226562 162.925781 86.542969 163.480469 86.941406 163.957031 C 87.339844 164.433594 87.734375 164.910156 88.292969 165.308594 C 88.769531 165.703125 89.324219 166.023438 89.878906 166.261719 C 90.433594 166.5 91.070312 166.65625 91.707031 166.816406 L 92.023438 167.929688 L 95.597656 166.339844 C 95.914062 167.371094 96.3125 168.246094 96.707031 169.121094 C 99.089844 174.519531 102.265625 179.519531 106.15625 183.886719 C 109.570312 187.617188 113.382812 190.953125 117.589844 193.734375 C 121.796875 196.511719 126.324219 198.734375 131.167969 200.402344 C 145.0625 205.40625 156.734375 203.738281 167.054688 202.226562 C 184.679688 199.6875 196.351562 198.019531 212.390625 231.84375 C 221.601562 251.375 233.828125 269.082031 246.691406 281.867188 C 262.015625 297.03125 278.214844 305.128906 293.695312 305.527344 C 316.640625 306.003906 336.730469 290.203125 353.5625 258.601562 C 364.996094 237.085938 367.773438 222.632812 362.453125 213.183594 C 355.863281 201.433594 339.589844 200.5625 320.691406 199.449219 C 306.320312 198.65625 290.042969 197.703125 277.179688 191.667969 C 277.417969 191.191406 277.65625 190.714844 277.894531 190.320312 C 278.132812 189.84375 278.292969 189.367188 278.53125 188.890625 C 278.6875 188.414062 278.925781 187.9375 279.085938 187.460938 C 279.246094 186.984375 279.402344 186.507812 279.5625 185.953125 C 279.722656 185.476562 279.800781 184.917969 279.960938 184.441406 C 280.039062 183.964844 280.117188 183.410156 280.199219 182.933594 C 280.277344 182.378906 280.355469 181.902344 280.355469 181.347656 C 280.4375 180.789062 280.4375 180.3125 280.4375 179.757812 C 280.4375 179.203125 280.4375 178.726562 280.4375 178.171875 C 280.4375 177.613281 280.355469 177.136719 280.355469 176.582031 C 280.277344 176.027344 280.199219 175.550781 280.117188 175.074219 C 280.039062 174.597656 279.960938 174.042969 279.800781 173.566406 C 279.722656 173.089844 279.5625 172.535156 279.402344 172.058594 C 279.246094 171.582031 279.085938 171.105469 278.925781 170.546875 C 278.769531 170.070312 278.53125 169.59375 278.371094 169.121094 C 278.132812 168.644531 277.976562 168.167969 277.738281 167.691406 C 277.5 167.214844 277.261719 166.738281 277.023438 166.339844 C 276.785156 165.863281 276.464844 165.46875 276.226562 164.992188 C 275.910156 164.59375 275.671875 164.117188 275.355469 163.71875 C 275.035156 163.324219 274.71875 162.925781 274.402344 162.527344 C 274.085938 162.132812 273.6875 161.734375 273.371094 161.417969 C 272.972656 161.019531 272.65625 160.703125 272.257812 160.304688 C 271.859375 159.988281 271.464844 159.589844 271.066406 159.273438 C 270.671875 158.957031 270.273438 158.636719 269.796875 158.320312 C 269.398438 158.003906 268.921875 157.765625 268.527344 157.449219 C 268.050781 157.210938 267.652344 156.890625 267.175781 156.652344 C 266.699219 156.414062 266.222656 156.175781 265.746094 155.9375 C 265.269531 155.699219 264.792969 155.542969 264.316406 155.304688 C 263.84375 155.144531 263.367188 154.90625 262.890625 154.746094 C 262.414062 154.589844 261.855469 154.429688 261.378906 154.351562 C 260.902344 154.191406 260.347656 154.113281 259.871094 154.035156 C 259.394531 153.953125 258.839844 153.875 258.363281 153.796875 C 257.886719 153.714844 257.332031 153.636719 256.777344 153.636719 C 256.21875 153.636719 255.742188 153.558594 255.1875 153.558594 C 254.632812 153.558594 254.15625 153.558594 253.597656 153.558594 C 253.042969 153.558594 252.566406 153.636719 252.011719 153.714844 C 251.457031 153.796875 250.980469 153.875 250.503906 153.953125 C 250.027344 154.035156 249.472656 154.113281 248.996094 154.273438 C 248.519531 154.429688 247.960938 154.511719 247.484375 154.667969 C 247.007812 154.828125 246.53125 154.984375 245.976562 155.144531 C 245.5 155.304688 245.023438 155.542969 244.546875 155.699219 C 244.070312 155.9375 243.59375 156.097656 243.117188 156.335938 C 242.640625 156.574219 242.167969 156.8125 241.769531 157.128906 C 241.371094 157.449219 240.894531 157.6875 240.417969 158.003906 C 240.023438 158.320312 239.546875 158.636719 239.148438 158.957031 C 238.75 159.273438 238.355469 159.589844 237.957031 159.910156 C 237.5625 160.226562 237.164062 160.625 236.847656 160.941406 C 236.449219 161.339844 236.132812 161.65625 235.8125 162.050781 C 235.496094 162.449219 235.097656 162.847656 234.78125 163.242188 C 234.464844 163.640625 234.148438 164.039062 233.828125 164.515625 C 233.511719 164.910156 233.273438 165.386719 232.957031 165.785156 C 232.71875 166.261719 232.398438 166.65625 232.160156 167.132812 C 231.921875 167.609375 231.683594 168.085938 231.445312 168.5625 C 231.210938 169.039062 231.050781 169.515625 230.8125 169.992188 C 230.652344 170.46875 230.496094 170.945312 230.335938 171.5 C 230.175781 171.976562 230.019531 172.453125 229.9375 173.007812 C 229.78125 173.484375 229.699219 174.042969 229.621094 174.519531 C 229.542969 174.996094 229.460938 175.550781 229.382812 176.027344 C 229.304688 176.582031 229.304688 177.058594 229.222656 177.613281 C 229.222656 178.171875 229.144531 178.648438 229.144531 179.203125 C 229.144531 179.757812 229.144531 180.234375 229.222656 180.789062 C 229.222656 181.347656 229.304688 181.824219 229.382812 182.378906 C 229.460938 182.933594 229.542969 183.410156 229.621094 183.886719 C 229.699219 184.363281 229.859375 184.917969 229.9375 185.394531 C 230.019531 185.871094 230.175781 186.429688 230.335938 186.90625 C 230.496094 187.378906 230.652344 187.855469 230.8125 188.414062 C 230.972656 188.890625 231.210938 189.367188 231.445312 189.84375 C 231.683594 190.320312 231.921875 190.796875 232.160156 191.269531 C 232.398438 191.746094 232.636719 192.144531 232.957031 192.621094 C 233.195312 193.097656 233.511719 193.496094 233.828125 193.890625 C 234.148438 194.289062 234.464844 194.765625 234.78125 195.160156 C 235.101562 195.558594 235.417969 195.957031 235.8125 196.351562 C 236.132812 196.75 236.527344 197.148438 236.925781 197.464844 C 237.324219 197.863281 237.640625 198.179688 238.039062 198.496094 C 238.433594 198.8125 238.832031 199.132812 239.226562 199.449219 C 239.625 199.765625 240.023438 200.085938 240.5 200.402344 C 240.894531 200.71875 241.371094 200.957031 241.847656 201.277344 C 242.324219 201.515625 242.722656 201.832031 243.199219 202.070312 C 243.675781 202.308594 244.152344 202.546875 244.628906 202.703125 C 245.105469 202.941406 245.582031 203.101562 246.054688 203.261719 C 246.53125 203.417969 247.007812 203.578125 247.566406 203.738281 C 248.042969 203.894531 248.597656 204.054688 249.074219 204.132812 C 249.550781 204.292969 250.105469 204.371094 250.582031 204.453125 C 251.058594 204.53125 251.613281 204.609375 252.089844 204.691406 C 252.648438 204.769531 253.125 204.769531 253.679688 204.847656 C 254.234375 204.847656 254.710938 204.847656 255.265625 204.847656 C 255.824219 204.847656 256.300781 204.847656 256.855469 204.769531 C 257.410156 204.769531 257.886719 204.691406 258.441406 204.609375 C 258.917969 204.53125 259.476562 204.453125 259.953125 204.371094 C 260.429688 204.292969 260.984375 204.132812 261.460938 204.054688 C 261.9375 203.894531 262.492188 203.816406 262.96875 203.65625 C 263.445312 203.5 263.921875 203.339844 264.398438 203.101562 C 264.875 202.941406 265.351562 202.703125 265.828125 202.464844 C 266.304688 202.226562 266.78125 201.988281 267.257812 201.753906 C 267.730469 201.515625 268.128906 201.277344 268.605469 200.957031 C 269.082031 200.71875 269.480469 200.402344 269.875 200.085938 C 285.4375 208.34375 303.9375 209.375 320.375 210.328125 C 335.378906 211.199219 349.511719 211.996094 353.164062 218.425781 C 355.386719 222.316406 355.625 231.527344 344.113281 253.28125 C 329.425781 280.992188 312.59375 294.886719 294.25 294.410156 C 264.714844 293.773438 237.242188 257.726562 222.714844 227.082031 C 203.179688 185.953125 184.203125 188.652344 165.863281 191.269531 C 156.414062 192.621094 146.648438 194.050781 135.296875 190 C 117.429688 183.570312 109.492188 171.421875 105.996094 161.816406 L 106.792969 161.496094 C 107.269531 161.339844 107.664062 161.019531 108.0625 160.78125 C 108.457031 160.542969 108.855469 160.148438 109.171875 159.828125 C 109.492188 159.511719 109.808594 159.113281 110.125 158.636719 C 110.363281 158.242188 110.601562 157.765625 110.761719 157.289062 C 110.921875 156.8125 111.078125 156.335938 111.15625 155.859375 C 111.238281 155.382812 111.316406 154.90625 111.316406 154.351562 C 111.316406 153.875 111.238281 153.398438 111.15625 152.921875 C 111.078125 152.445312 110.921875 151.96875 110.683594 151.492188 L 107.269531 143.710938 C 109.808594 141.648438 112.03125 139.34375 114.015625 136.804688 C 116 134.261719 117.667969 131.40625 118.9375 128.46875 C 125.449219 112.746094 117.035156 72.570312 106.792969 60.183594 C 102.105469 54.625 95.039062 51.449219 86.148438 50.894531 C 85.59375 49.863281 84.878906 48.910156 84.003906 48.035156 C 83.128906 47.164062 82.257812 46.449219 81.226562 45.8125 C 80.191406 45.179688 79.082031 44.703125 77.890625 44.382812 C 76.699219 44.066406 75.507812 43.90625 74.316406 43.90625 C 73.761719 43.90625 73.207031 43.90625 72.648438 43.988281 C 72.09375 44.066406 71.539062 44.144531 71.0625 44.304688 C 70.507812 44.464844 70.03125 44.621094 69.472656 44.78125 C 68.996094 44.941406 68.441406 45.179688 67.964844 45.496094 C 67.488281 45.734375 67.011719 46.050781 66.535156 46.367188 C 66.058594 46.6875 65.664062 47.003906 65.265625 47.402344 C 64.867188 47.796875 64.472656 48.195312 64.152344 48.59375 C 63.835938 48.988281 63.441406 49.464844 63.203125 49.941406 C 62.882812 50.417969 62.644531 50.894531 62.40625 51.371094 C 62.167969 51.847656 61.929688 52.402344 61.773438 52.878906 C 61.613281 53.433594 61.453125 53.910156 61.296875 54.46875 C 61.214844 55.023438 61.136719 55.578125 61.058594 56.136719 C 60.976562 56.691406 60.976562 57.246094 61.058594 57.800781 C 61.058594 58.359375 61.136719 58.914062 61.214844 59.46875 C 61.296875 60.023438 61.453125 60.582031 61.613281 61.058594 C 61.773438 61.613281 61.929688 62.089844 62.167969 62.566406 C 62.726562 63.757812 63.359375 64.867188 64.234375 65.902344 C 65.105469 66.933594 66.058594 67.726562 67.171875 68.441406 C 68.28125 69.15625 69.472656 69.710938 70.746094 70.03125 C 72.015625 70.347656 73.285156 70.585938 74.636719 70.507812 C 75.984375 70.507812 77.253906 70.269531 78.523438 69.871094 C 79.796875 69.472656 80.988281 68.839844 82.019531 68.125 C 83.128906 67.328125 84.082031 66.457031 84.878906 65.425781 C 85.671875 64.390625 86.304688 63.203125 86.78125 62.011719 C 91.785156 62.488281 95.515625 64.152344 97.976562 66.933594 L 98.214844 67.25 C 101.867188 71.617188 105.839844 82.890625 108.21875 95.199219 C 110.523438 107.503906 110.761719 119.335938 108.695312 124.257812 C 104.964844 133.308594 94.722656 139.34375 91.546875 141.089844 C 88.054688 142.28125 76.699219 145.695312 67.566406 142.28125 C 62.566406 140.457031 54.148438 132.359375 46.605469 122.113281 C 39.0625 111.871094 33.585938 101.472656 32.871094 95.753906 C 32.394531 91.945312 33.664062 87.972656 36.839844 83.765625 C 37.316406 84.003906 37.875 84.164062 38.429688 84.242188 C 38.984375 84.402344 39.460938 84.480469 40.015625 84.558594 C 40.574219 84.640625 41.128906 84.640625 41.683594 84.71875 C 42.238281 84.71875 42.796875 84.71875 43.351562 84.640625 C 43.90625 84.558594 44.464844 84.480469 44.941406 84.320312 C 45.496094 84.164062 45.972656 84.003906 46.527344 83.84375 C 47.003906 83.6875 47.558594 83.449219 48.035156 83.210938 C 48.511719 82.972656 48.988281 82.652344 49.464844 82.335938 C 49.941406 82.019531 50.339844 81.703125 50.734375 81.304688 C 51.132812 80.90625 51.53125 80.589844 51.925781 80.113281 C 52.324219 79.714844 52.640625 79.238281 52.957031 78.84375 C 53.277344 78.367188 53.515625 77.890625 53.832031 77.414062 C 54.070312 76.9375 54.308594 76.460938 54.46875 75.90625 C 54.625 75.429688 54.785156 74.871094 54.945312 74.316406 C 55.101562 73.761719 55.183594 73.285156 55.183594 72.730469 C 55.261719 72.171875 55.261719 71.617188 55.261719 71.0625 C 55.261719 70.507812 55.183594 69.949219 55.101562 69.394531 C 55.023438 68.839844 54.945312 68.28125 54.785156 67.804688 C 54.625 67.25 54.46875 66.773438 54.230469 66.21875 C 53.992188 65.742188 53.753906 65.1875 53.515625 64.710938 C 53.277344 64.234375 52.957031 63.757812 52.640625 63.359375 C 52.324219 62.882812 52.007812 62.488281 51.609375 62.089844 C 51.210938 61.691406 50.816406 61.296875 50.417969 60.976562 C 50.019531 60.660156 49.542969 60.34375 49.070312 60.023438 C 48.59375 59.707031 48.117188 59.46875 47.640625 59.230469 C 47.164062 58.992188 46.605469 58.753906 46.128906 58.597656 C 45.574219 58.4375 45.097656 58.277344 44.542969 58.199219 C 43.988281 58.121094 43.429688 58.039062 42.953125 57.960938 C 42.398438 57.882812 41.84375 57.882812 41.289062 57.960938 C 40.730469 57.960938 40.175781 58.039062 39.621094 58.121094 C 39.0625 58.199219 38.507812 58.359375 38.03125 58.515625 C 37.476562 58.675781 37 58.835938 36.523438 59.074219 C 35.730469 59.390625 35.015625 59.789062 34.300781 60.261719 C 33.585938 60.738281 32.949219 61.296875 32.394531 61.851562 C 31.757812 62.488281 31.28125 63.121094 30.808594 63.757812 C 30.332031 64.390625 29.933594 65.1875 29.617188 65.980469 C 29.296875 66.773438 28.980469 67.566406 28.820312 68.363281 C 28.664062 69.15625 28.503906 70.03125 28.503906 70.824219 C 28.503906 71.695312 28.503906 72.492188 28.664062 73.363281 C 28.820312 74.160156 28.980469 75.03125 29.296875 75.824219 C 23.105469 82.890625 20.644531 90.277344 21.597656 97.421875 Z M 21.597656 97.421875 "/></g></svg>