<svg width="14" height="14" viewBox="0 0 14 14" fill="none" xmlns="http://www.w3.org/2000/svg">
<path d="M1.56881 3.91096C1.47362 3.68888 1.21643 3.586 0.994338 3.68118C0.772252 3.77636 0.669369 4.03356 0.764552 4.25564L1.56881 3.91096ZM5.27419 8.01363C5.40597 7.81115 5.34862 7.54014 5.14609 7.40836C4.94356 7.27659 4.67256 7.33393 4.54078 7.53646L5.27419 8.01363ZM3.71664 8.80305C3.58486 9.00553 3.64221 9.27655 3.84474 9.40832C4.04727 9.5401 4.31827 9.48275 4.45005 9.28022L3.71664 8.80305ZM13.2355 4.25564C13.3306 4.03356 13.2278 3.77636 13.0057 3.68118C12.7836 3.586 12.5264 3.68888 12.4312 3.91096L13.2355 4.25564ZM11.649 7.67617C11.8199 7.84703 12.0968 7.84703 12.2677 7.67617C12.4385 7.50531 12.4385 7.22829 12.2677 7.05743L11.649 7.67617ZM6.56251 9.62497C6.56251 9.86659 6.75839 10.0625 7.00001 10.0625C7.24163 10.0625 7.43751 9.86659 7.43751 9.62497H6.56251ZM9.55 9.28022C9.68177 9.48275 9.95279 9.5401 10.1553 9.40832C10.3578 9.27655 10.4151 9.00553 10.2834 8.80305L9.55 9.28022ZM3.22604 6.80117C3.39689 6.63031 3.39689 6.35329 3.22604 6.18243C3.05519 6.01157 2.77817 6.01157 2.60732 6.18243L3.22604 6.80117ZM1.73232 7.05743C1.56147 7.22829 1.56147 7.50531 1.73232 7.67617C1.90317 7.84703 2.18019 7.84703 2.35104 7.67617L1.73232 7.05743ZM7.00001 7.72914C5.11941 7.72914 3.76912 6.79265 2.8727 5.82727C2.42461 5.34472 2.09607 4.86079 1.87986 4.49755C1.772 4.31635 1.69277 4.16632 1.64116 4.0631C1.61537 4.01153 1.59653 3.97174 1.5845 3.9457C1.57849 3.93269 1.57419 3.92312 1.57158 3.91725C1.57027 3.91431 1.56927 3.91202 1.56881 3.91096C1.56879 3.91094 1.56882 3.91101 1.56881 3.91096C1.56886 3.9111 1.56881 3.91096 1.16668 4.0833C0.764552 4.25564 0.764464 4.25545 0.764552 4.25564C0.764587 4.25573 0.764843 4.25632 0.764919 4.2565C0.765065 4.25684 0.765246 4.25725 0.76545 4.25772C0.765853 4.25867 0.766372 4.25986 0.766996 4.26129C0.76825 4.26416 0.769942 4.268 0.772071 4.27279C0.776329 4.28237 0.782349 4.29573 0.790154 4.31262C0.805753 4.3464 0.828497 4.39434 0.858538 4.45442C0.918581 4.57451 1.00798 4.74349 1.12798 4.9451C1.36749 5.34748 1.73167 5.8844 2.2315 6.42265C3.2309 7.49895 4.79728 8.60414 7.00001 8.60414V7.72914ZM8.9323 7.36794C8.36624 7.59077 7.72434 7.72914 7.00001 7.72914V8.60414C7.83896 8.60414 8.58936 8.44325 9.25279 8.18215L8.9323 7.36794ZM4.54078 7.53646L3.71664 8.80305L4.45005 9.28022L5.27419 8.01363L4.54078 7.53646ZM12.8333 4.0833C12.4312 3.91096 12.4311 3.91105 12.4312 3.91096C12.4313 3.91087 12.4315 3.91034 12.4315 3.9104C12.4314 3.91052 12.4313 3.91094 12.4309 3.91166C12.4303 3.91311 12.4291 3.91574 12.4274 3.91953C12.424 3.92711 12.4185 3.93927 12.4109 3.9557C12.3956 3.98855 12.3717 4.03836 12.339 4.10236C12.2737 4.23046 12.1736 4.41482 12.0373 4.6335C11.764 5.07215 11.3495 5.64195 10.7839 6.1728L11.3828 6.8108C12.018 6.21451 12.4785 5.58006 12.78 5.09624C12.9311 4.8537 13.0433 4.64727 13.1185 4.49989C13.1561 4.42616 13.1845 4.36706 13.2039 4.32543C13.2136 4.30462 13.2211 4.28816 13.2263 4.27641C13.229 4.27054 13.2311 4.26584 13.2326 4.26236C13.2333 4.26063 13.2339 4.2592 13.2344 4.25807C13.2347 4.25751 13.2349 4.25703 13.235 4.25662C13.2351 4.25642 13.2354 4.25581 13.2355 4.25564C13.2355 4.25569 13.2356 4.25556 13.2355 4.25564C13.2356 4.25555 13.2355 4.25564 12.8333 4.0833ZM10.7839 6.1728C10.2828 6.64309 9.66812 7.07831 8.9323 7.36794L9.25279 8.18215C10.1124 7.84382 10.8189 7.34005 11.3828 6.8108L10.7839 6.1728ZM10.774 6.80117L11.649 7.67617L12.2677 7.05743L11.3927 6.18243L10.774 6.80117ZM6.56251 8.16664V9.62497H7.43751V8.16664H6.56251ZM8.72586 8.01363L9.55 9.28022L10.2834 8.80305L9.45923 7.53646L8.72586 8.01363ZM2.60732 6.18243L1.73232 7.05743L2.35104 7.67617L3.22604 6.80117L2.60732 6.18243Z" fill="#6F7985"/>
</svg>
