<svg width="14" height="15" viewBox="0 0 14 15" fill="none" xmlns="http://www.w3.org/2000/svg">
<path fill-rule="evenodd" clip-rule="evenodd" d="M7 5.3125C5.79188 5.3125 4.8125 6.29188 4.8125 7.5C4.8125 8.70814 5.79188 9.6875 7 9.6875C8.20814 9.6875 9.1875 8.70814 9.1875 7.5C9.1875 6.29188 8.20814 5.3125 7 5.3125ZM5.6875 7.5C5.6875 6.77515 6.27515 6.1875 7 6.1875C7.72485 6.1875 8.3125 6.77515 8.3125 7.5C8.3125 8.22485 7.72485 8.8125 7 8.8125C6.27515 8.8125 5.6875 8.22485 5.6875 7.5Z" fill="#6F7985"/>
<path fill-rule="evenodd" clip-rule="evenodd" d="M7.00002 2.39581C4.36678 2.39581 2.59311 3.97326 1.56369 5.31065L1.54512 5.33476C1.31231 5.63712 1.09789 5.9156 0.952423 6.24488C0.796644 6.5975 0.729187 6.9818 0.729187 7.49998C0.729187 8.01815 0.796644 8.40245 0.952423 8.75508C1.09789 9.08437 1.31231 9.36285 1.54512 9.6652L1.56369 9.68929C2.59311 11.0267 4.36678 12.6041 7.00002 12.6041C9.63325 12.6041 11.4069 11.0267 12.4363 9.68929L12.4549 9.6652C12.6878 9.36285 12.9021 9.08437 13.0476 8.75508C13.2034 8.40245 13.2709 8.01815 13.2709 7.49998C13.2709 6.9818 13.2034 6.5975 13.0476 6.24488C12.9021 5.91559 12.6878 5.63712 12.4549 5.33475L12.4363 5.31065C11.4069 3.97326 9.63325 2.39581 7.00002 2.39581ZM2.25707 5.84436C3.20756 4.60952 4.7544 3.27081 7.00002 3.27081C9.24562 3.27081 10.7925 4.60952 11.743 5.84436C11.9988 6.17674 12.1487 6.37537 12.2472 6.59844C12.3394 6.80698 12.3959 7.06184 12.3959 7.49998C12.3959 7.93812 12.3394 8.19298 12.2472 8.40152C12.1487 8.62459 11.9988 8.82321 11.743 9.1556C10.7925 10.3905 9.24562 11.7291 7.00002 11.7291C4.7544 11.7291 3.20756 10.3905 2.25707 9.1556C2.00123 8.82321 1.85137 8.62459 1.7528 8.40152C1.66068 8.19298 1.60419 7.93812 1.60419 7.49998C1.60419 7.06184 1.66068 6.80698 1.7528 6.59844C1.85137 6.37537 2.00122 6.17674 2.25707 5.84436Z" fill="#6F7985"/>
</svg>
