<svg width="14" height="14" viewBox="0 0 14 14" fill="none" xmlns="http://www.w3.org/2000/svg">
<g clip-path="url(#clip0_16_32)">
<path d="M1.16669 9.33331C1.16669 7.68341 1.16669 6.85846 1.67925 6.34589C2.19181 5.83331 3.01677 5.83331 4.66669 5.83331H9.33335C10.9833 5.83331 11.8082 5.83331 12.3208 6.34589C12.8334 6.85846 12.8334 7.68341 12.8334 9.33331C12.8334 10.9832 12.8334 11.8082 12.3208 12.3207C11.8082 12.8333 10.9833 12.8333 9.33335 12.8333H4.66669C3.01677 12.8333 2.19181 12.8333 1.67925 12.3207C1.16669 11.8082 1.16669 10.9832 1.16669 9.33331Z" stroke="#6F7985" stroke-width="0.875"/>
<path d="M7 8.16669V10.5" stroke="#6F7985" stroke-width="0.875" stroke-linecap="round"/>
<path d="M3.5 5.83335V4.66669C3.5 2.73369 5.067 1.16669 7 1.16669C8.93299 1.16669 10.5 2.73369 10.5 4.66669V5.83335" stroke="#6F7985" stroke-width="0.875" stroke-linecap="round"/>
</g>
<defs>
<clipPath id="clip0_16_32">
<rect width="14" height="14" fill="white"/>
</clipPath>
</defs>
</svg>
